<mxfile host="app.diagrams.net" modified="2020-10-29T02:54:15.102Z" agent="5.0 (Windows NT 10.0; Win64; x64) AppleWebKit/537.36 (KHTML, like Gecko) Chrome/86.0.4240.111 Safari/537.36" etag="-wMZX9TjAdJWkn4a4ELZ" version="13.8.6" type="github" pages="2">
  <diagram id="K35iJxlvKoCBuR1jSi1n" name="Opc1">
    <mxGraphModel dx="868" dy="482" grid="1" gridSize="10" guides="1" tooltips="1" connect="1" arrows="1" fold="1" page="1" pageScale="1" pageWidth="827" pageHeight="1169" math="0" shadow="0">
      <root>
        <mxCell id="0" />
        <mxCell id="1" parent="0" />
        <mxCell id="GYfXLkPxUwawAxMpnzkY-1" value="" style="shape=or;whiteSpace=wrap;html=1;rotation=-90;fillColor=#f5f5f5;strokeColor=#666666;fontColor=#333333;" parent="1" vertex="1">
          <mxGeometry x="289" y="-10" width="250" height="620" as="geometry" />
        </mxCell>
        <mxCell id="GYfXLkPxUwawAxMpnzkY-2" value="&lt;h1&gt;Evaluación 1 Equipo 5&lt;/h1&gt;" style="text;html=1;strokeColor=#b85450;align=center;verticalAlign=middle;whiteSpace=wrap;rounded=0;fillColor=#FF99FF;" parent="1" vertex="1">
          <mxGeometry x="30" y="20" width="330" height="40" as="geometry" />
        </mxCell>
        <mxCell id="GYfXLkPxUwawAxMpnzkY-3" value="&lt;h3&gt;Trabajo: Reporte&amp;nbsp; Seguros Inbursa&lt;/h3&gt;" style="text;html=1;strokeColor=#9673a6;fillColor=#e1d5e7;align=center;verticalAlign=middle;whiteSpace=wrap;rounded=0;" parent="1" vertex="1">
          <mxGeometry x="30" y="60" width="260" height="30" as="geometry" />
        </mxCell>
        <mxCell id="GYfXLkPxUwawAxMpnzkY-5" value="Ari Jalil Ortega Martínez" style="shape=document;whiteSpace=wrap;html=1;boundedLbl=1;fillColor=#dae8fc;strokeColor=#6c8ebf;" parent="1" vertex="1">
          <mxGeometry x="342.5" y="90" width="71" height="110" as="geometry" />
        </mxCell>
        <mxCell id="GYfXLkPxUwawAxMpnzkY-6" value="Shanelly Abisay Leija Estrada" style="shape=document;whiteSpace=wrap;html=1;boundedLbl=1;fillColor=#dae8fc;strokeColor=#6c8ebf;" parent="1" vertex="1">
          <mxGeometry x="420" y="90" width="71" height="110" as="geometry" />
        </mxCell>
        <mxCell id="GYfXLkPxUwawAxMpnzkY-8" value="Aline Monserrath Medina Resendis" style="shape=document;whiteSpace=wrap;html=1;boundedLbl=1;fillColor=#d5e8d4;strokeColor=#82b366;" parent="1" vertex="1">
          <mxGeometry x="260" y="120" width="71" height="110" as="geometry" />
        </mxCell>
        <mxCell id="GYfXLkPxUwawAxMpnzkY-9" value="Manuel Rueda Hernández" style="shape=document;whiteSpace=wrap;html=1;boundedLbl=1;fillColor=#d5e8d4;strokeColor=#82b366;" parent="1" vertex="1">
          <mxGeometry x="500" y="120" width="71" height="110" as="geometry" />
        </mxCell>
        <mxCell id="GYfXLkPxUwawAxMpnzkY-11" value="Carlos Daniel Flores Cortés" style="shape=document;whiteSpace=wrap;html=1;boundedLbl=1;fillColor=#fff2cc;strokeColor=#d6b656;" parent="1" vertex="1">
          <mxGeometry x="180" y="150" width="71" height="110" as="geometry" />
        </mxCell>
        <mxCell id="GYfXLkPxUwawAxMpnzkY-12" value="Pedro Octavio García Hernández" style="shape=document;whiteSpace=wrap;html=1;boundedLbl=1;fillColor=#fff2cc;strokeColor=#d6b656;" parent="1" vertex="1">
          <mxGeometry x="580" y="150" width="71" height="110" as="geometry" />
        </mxCell>
        <mxCell id="GYfXLkPxUwawAxMpnzkY-13" value="Roberto Rodolfo Peniche Mayen" style="shape=document;whiteSpace=wrap;html=1;boundedLbl=1;fillColor=#ffe6cc;strokeColor=#d79b00;" parent="1" vertex="1">
          <mxGeometry x="100" y="220" width="71" height="110" as="geometry" />
        </mxCell>
        <mxCell id="GYfXLkPxUwawAxMpnzkY-14" value="Frida Nathali Álvarez Álvarez" style="shape=document;whiteSpace=wrap;html=1;boundedLbl=1;fillColor=#ffe6cc;strokeColor=#d79b00;" parent="1" vertex="1">
          <mxGeometry x="660" y="220" width="71" height="110" as="geometry" />
        </mxCell>
        <mxCell id="GYfXLkPxUwawAxMpnzkY-15" value="Efren David Martínez Durán" style="shape=document;whiteSpace=wrap;html=1;boundedLbl=1;fillColor=#f8cecc;strokeColor=#b85450;" parent="1" vertex="1">
          <mxGeometry x="700" y="320" width="71" height="110" as="geometry" />
        </mxCell>
        <mxCell id="GYfXLkPxUwawAxMpnzkY-16" value="Carlos Hazel de los Ángeles Arrreola" style="shape=document;whiteSpace=wrap;html=1;boundedLbl=1;fillColor=#f8cecc;strokeColor=#b85450;" parent="1" vertex="1">
          <mxGeometry x="60" y="330" width="71" height="110" as="geometry" />
        </mxCell>
        <mxCell id="GYfXLkPxUwawAxMpnzkY-17" value="" style="shape=image;html=1;verticalAlign=top;verticalLabelPosition=bottom;labelBackgroundColor=#ffffff;imageAspect=0;aspect=fixed;image=https://cdn3.iconfinder.com/data/icons/google-material-design-icons/48/ic_looks_one_48px-128.png;fillColor=#FF99FF;" parent="1" vertex="1">
          <mxGeometry x="353" y="160" width="50" height="50" as="geometry" />
        </mxCell>
        <mxCell id="GYfXLkPxUwawAxMpnzkY-18" value="" style="shape=image;html=1;verticalAlign=top;verticalLabelPosition=bottom;labelBackgroundColor=#ffffff;imageAspect=0;aspect=fixed;image=https://cdn3.iconfinder.com/data/icons/google-material-design-icons/48/ic_looks_one_48px-128.png;fillColor=#FF99FF;" parent="1" vertex="1">
          <mxGeometry x="430.5" y="160" width="50" height="50" as="geometry" />
        </mxCell>
        <mxCell id="GYfXLkPxUwawAxMpnzkY-19" value="" style="shape=image;html=1;verticalAlign=top;verticalLabelPosition=bottom;labelBackgroundColor=#ffffff;imageAspect=0;aspect=fixed;image=https://cdn2.iconfinder.com/data/icons/integers/60/number-two-128.png;fillColor=#FF99FF;" parent="1" vertex="1">
          <mxGeometry x="515.5" y="190" width="40" height="40" as="geometry" />
        </mxCell>
        <mxCell id="GYfXLkPxUwawAxMpnzkY-20" value="" style="shape=image;html=1;verticalAlign=top;verticalLabelPosition=bottom;labelBackgroundColor=#ffffff;imageAspect=0;aspect=fixed;image=https://cdn2.iconfinder.com/data/icons/integers/60/number-three-128.png;fillColor=#FF99FF;" parent="1" vertex="1">
          <mxGeometry x="275.5" y="190" width="40" height="40" as="geometry" />
        </mxCell>
        <mxCell id="GYfXLkPxUwawAxMpnzkY-21" value="" style="shape=image;html=1;verticalAlign=top;verticalLabelPosition=bottom;labelBackgroundColor=#ffffff;imageAspect=0;aspect=fixed;image=https://cdn2.iconfinder.com/data/icons/integers/60/number-four-128.png;fillColor=#FF99FF;" parent="1" vertex="1">
          <mxGeometry x="195.5" y="220" width="40" height="40" as="geometry" />
        </mxCell>
        <mxCell id="GYfXLkPxUwawAxMpnzkY-22" value="" style="shape=image;html=1;verticalAlign=top;verticalLabelPosition=bottom;labelBackgroundColor=#ffffff;imageAspect=0;aspect=fixed;image=https://cdn2.iconfinder.com/data/icons/integers/60/number-six-128.png;fillColor=#FF99FF;" parent="1" vertex="1">
          <mxGeometry x="660" y="290" width="40" height="40" as="geometry" />
        </mxCell>
        <mxCell id="GYfXLkPxUwawAxMpnzkY-23" value="" style="shape=image;html=1;verticalAlign=top;verticalLabelPosition=bottom;labelBackgroundColor=#ffffff;imageAspect=0;aspect=fixed;image=https://cdn2.iconfinder.com/data/icons/integers/60/number-seven-128.png;fillColor=#FF99FF;" parent="1" vertex="1">
          <mxGeometry x="140" y="290" width="40" height="40" as="geometry" />
        </mxCell>
        <mxCell id="GYfXLkPxUwawAxMpnzkY-24" value="" style="shape=image;html=1;verticalAlign=top;verticalLabelPosition=bottom;labelBackgroundColor=#ffffff;imageAspect=0;aspect=fixed;image=https://cdn2.iconfinder.com/data/icons/integers/60/number-five-128.png;fillColor=#FF99FF;" parent="1" vertex="1">
          <mxGeometry x="590" y="220" width="40" height="40" as="geometry" />
        </mxCell>
        <mxCell id="GYfXLkPxUwawAxMpnzkY-25" value="" style="shape=image;html=1;verticalAlign=top;verticalLabelPosition=bottom;labelBackgroundColor=#ffffff;imageAspect=0;aspect=fixed;image=https://cdn2.iconfinder.com/data/icons/integers/60/number-eight-128.png;fillColor=#FF99FF;" parent="1" vertex="1">
          <mxGeometry x="700" y="380" width="40" height="40" as="geometry" />
        </mxCell>
        <mxCell id="GYfXLkPxUwawAxMpnzkY-26" value="" style="shape=image;html=1;verticalAlign=top;verticalLabelPosition=bottom;labelBackgroundColor=#ffffff;imageAspect=0;aspect=fixed;image=https://cdn2.iconfinder.com/data/icons/integers/60/number-nine-128.png;fillColor=#FF99FF;" parent="1" vertex="1">
          <mxGeometry x="120" y="380" width="44" height="44" as="geometry" />
        </mxCell>
      </root>
    </mxGraphModel>
  </diagram>
  <diagram name="Opc2" id="CYpxEfI-WV6l3qO5GipK">
    <mxGraphModel dx="868" dy="482" grid="1" gridSize="10" guides="1" tooltips="1" connect="1" arrows="1" fold="1" page="1" pageScale="1" pageWidth="827" pageHeight="1169" math="0" shadow="0">
      <root>
        <mxCell id="EM-M0i8cVrrj_vwTdJZg-0" />
        <mxCell id="EM-M0i8cVrrj_vwTdJZg-1" parent="EM-M0i8cVrrj_vwTdJZg-0" />
        <mxCell id="ehH98rxzwJKjTgOSaztb-5" value="" style="shape=manualInput;whiteSpace=wrap;html=1;fillColor=#f5f5f5;size=213;strokeColor=#666666;fontColor=#333333;" vertex="1" parent="EM-M0i8cVrrj_vwTdJZg-1">
          <mxGeometry x="40" y="110" width="710" height="400" as="geometry" />
        </mxCell>
        <mxCell id="EM-M0i8cVrrj_vwTdJZg-3" value="&lt;h1&gt;Evaluación 1 Equipo 5&lt;/h1&gt;" style="text;html=1;strokeColor=#b85450;align=center;verticalAlign=middle;whiteSpace=wrap;rounded=0;fillColor=#FF99FF;" vertex="1" parent="EM-M0i8cVrrj_vwTdJZg-1">
          <mxGeometry x="30" y="20" width="330" height="40" as="geometry" />
        </mxCell>
        <mxCell id="EM-M0i8cVrrj_vwTdJZg-4" value="&lt;h3&gt;Trabajo: Reporte&amp;nbsp; Seguros Inbursa&lt;/h3&gt;" style="text;html=1;strokeColor=#9673a6;fillColor=#e1d5e7;align=center;verticalAlign=middle;whiteSpace=wrap;rounded=0;" vertex="1" parent="EM-M0i8cVrrj_vwTdJZg-1">
          <mxGeometry x="30" y="60" width="260" height="30" as="geometry" />
        </mxCell>
        <mxCell id="EM-M0i8cVrrj_vwTdJZg-5" value="Ari Jalil Ortega Martínez" style="shape=document;whiteSpace=wrap;html=1;boundedLbl=1;fillColor=#dae8fc;strokeColor=#6c8ebf;" vertex="1" parent="EM-M0i8cVrrj_vwTdJZg-1">
          <mxGeometry x="608" y="60" width="71" height="110" as="geometry" />
        </mxCell>
        <mxCell id="EM-M0i8cVrrj_vwTdJZg-6" value="Shanelly Abisay Leija Estrada" style="shape=document;whiteSpace=wrap;html=1;boundedLbl=1;fillColor=#dae8fc;strokeColor=#6c8ebf;" vertex="1" parent="EM-M0i8cVrrj_vwTdJZg-1">
          <mxGeometry x="679" y="60" width="71" height="110" as="geometry" />
        </mxCell>
        <mxCell id="EM-M0i8cVrrj_vwTdJZg-7" value="Aline Monserrath Medina Resendis" style="shape=document;whiteSpace=wrap;html=1;boundedLbl=1;fillColor=#d5e8d4;strokeColor=#82b366;" vertex="1" parent="EM-M0i8cVrrj_vwTdJZg-1">
          <mxGeometry x="466" y="110" width="71" height="110" as="geometry" />
        </mxCell>
        <mxCell id="EM-M0i8cVrrj_vwTdJZg-8" value="Manuel Rueda Hernández" style="shape=document;whiteSpace=wrap;html=1;boundedLbl=1;fillColor=#d5e8d4;strokeColor=#82b366;" vertex="1" parent="EM-M0i8cVrrj_vwTdJZg-1">
          <mxGeometry x="537" y="100" width="71" height="110" as="geometry" />
        </mxCell>
        <mxCell id="EM-M0i8cVrrj_vwTdJZg-9" value="Carlos Daniel Flores Cortés" style="shape=document;whiteSpace=wrap;html=1;boundedLbl=1;fillColor=#fff2cc;strokeColor=#d6b656;" vertex="1" parent="EM-M0i8cVrrj_vwTdJZg-1">
          <mxGeometry x="395" y="125" width="71" height="110" as="geometry" />
        </mxCell>
        <mxCell id="EM-M0i8cVrrj_vwTdJZg-10" value="Pedro Octavio García Hernández" style="shape=document;whiteSpace=wrap;html=1;boundedLbl=1;fillColor=#fff2cc;strokeColor=#d6b656;" vertex="1" parent="EM-M0i8cVrrj_vwTdJZg-1">
          <mxGeometry x="324" y="145" width="71" height="110" as="geometry" />
        </mxCell>
        <mxCell id="EM-M0i8cVrrj_vwTdJZg-11" value="Roberto Rodolfo Peniche Mayen" style="shape=document;whiteSpace=wrap;html=1;boundedLbl=1;fillColor=#ffe6cc;strokeColor=#d79b00;" vertex="1" parent="EM-M0i8cVrrj_vwTdJZg-1">
          <mxGeometry x="182" y="190" width="71" height="110" as="geometry" />
        </mxCell>
        <mxCell id="EM-M0i8cVrrj_vwTdJZg-12" value="Frida Nathali Álvarez Álvarez" style="shape=document;whiteSpace=wrap;html=1;boundedLbl=1;fillColor=#ffe6cc;strokeColor=#d79b00;" vertex="1" parent="EM-M0i8cVrrj_vwTdJZg-1">
          <mxGeometry x="253" y="170" width="71" height="110" as="geometry" />
        </mxCell>
        <mxCell id="EM-M0i8cVrrj_vwTdJZg-13" value="Efren David Martínez Durán" style="shape=document;whiteSpace=wrap;html=1;boundedLbl=1;fillColor=#f8cecc;strokeColor=#b85450;" vertex="1" parent="EM-M0i8cVrrj_vwTdJZg-1">
          <mxGeometry x="111" y="230" width="71" height="110" as="geometry" />
        </mxCell>
        <mxCell id="EM-M0i8cVrrj_vwTdJZg-14" value="Carlos Hazel de los Ángeles Arrreola" style="shape=document;whiteSpace=wrap;html=1;boundedLbl=1;fillColor=#f8cecc;strokeColor=#b85450;" vertex="1" parent="EM-M0i8cVrrj_vwTdJZg-1">
          <mxGeometry x="40" y="255" width="71" height="110" as="geometry" />
        </mxCell>
        <mxCell id="EM-M0i8cVrrj_vwTdJZg-15" value="" style="shape=image;html=1;verticalAlign=top;verticalLabelPosition=bottom;labelBackgroundColor=#ffffff;imageAspect=0;aspect=fixed;image=https://cdn3.iconfinder.com/data/icons/google-material-design-icons/48/ic_looks_one_48px-128.png;fillColor=#FF99FF;" vertex="1" parent="EM-M0i8cVrrj_vwTdJZg-1">
          <mxGeometry x="618.5" y="120" width="50" height="50" as="geometry" />
        </mxCell>
        <mxCell id="EM-M0i8cVrrj_vwTdJZg-16" value="" style="shape=image;html=1;verticalAlign=top;verticalLabelPosition=bottom;labelBackgroundColor=#ffffff;imageAspect=0;aspect=fixed;image=https://cdn3.iconfinder.com/data/icons/google-material-design-icons/48/ic_looks_one_48px-128.png;fillColor=#FF99FF;" vertex="1" parent="EM-M0i8cVrrj_vwTdJZg-1">
          <mxGeometry x="689.5" y="120" width="50" height="50" as="geometry" />
        </mxCell>
        <mxCell id="EM-M0i8cVrrj_vwTdJZg-17" value="" style="shape=image;html=1;verticalAlign=top;verticalLabelPosition=bottom;labelBackgroundColor=#ffffff;imageAspect=0;aspect=fixed;image=https://cdn2.iconfinder.com/data/icons/integers/60/number-two-128.png;fillColor=#FF99FF;" vertex="1" parent="EM-M0i8cVrrj_vwTdJZg-1">
          <mxGeometry x="552.5" y="160" width="40" height="40" as="geometry" />
        </mxCell>
        <mxCell id="EM-M0i8cVrrj_vwTdJZg-18" value="" style="shape=image;html=1;verticalAlign=top;verticalLabelPosition=bottom;labelBackgroundColor=#ffffff;imageAspect=0;aspect=fixed;image=https://cdn2.iconfinder.com/data/icons/integers/60/number-three-128.png;fillColor=#FF99FF;" vertex="1" parent="EM-M0i8cVrrj_vwTdJZg-1">
          <mxGeometry x="481.5" y="180" width="40" height="40" as="geometry" />
        </mxCell>
        <mxCell id="EM-M0i8cVrrj_vwTdJZg-19" value="" style="shape=image;html=1;verticalAlign=top;verticalLabelPosition=bottom;labelBackgroundColor=#ffffff;imageAspect=0;aspect=fixed;image=https://cdn2.iconfinder.com/data/icons/integers/60/number-four-128.png;fillColor=#FF99FF;" vertex="1" parent="EM-M0i8cVrrj_vwTdJZg-1">
          <mxGeometry x="410.5" y="190" width="40" height="40" as="geometry" />
        </mxCell>
        <mxCell id="EM-M0i8cVrrj_vwTdJZg-20" value="" style="shape=image;html=1;verticalAlign=top;verticalLabelPosition=bottom;labelBackgroundColor=#ffffff;imageAspect=0;aspect=fixed;image=https://cdn2.iconfinder.com/data/icons/integers/60/number-six-128.png;fillColor=#FF99FF;" vertex="1" parent="EM-M0i8cVrrj_vwTdJZg-1">
          <mxGeometry x="268.5" y="235" width="40" height="40" as="geometry" />
        </mxCell>
        <mxCell id="EM-M0i8cVrrj_vwTdJZg-21" value="" style="shape=image;html=1;verticalAlign=top;verticalLabelPosition=bottom;labelBackgroundColor=#ffffff;imageAspect=0;aspect=fixed;image=https://cdn2.iconfinder.com/data/icons/integers/60/number-seven-128.png;fillColor=#FF99FF;" vertex="1" parent="EM-M0i8cVrrj_vwTdJZg-1">
          <mxGeometry x="197.5" y="260" width="40" height="40" as="geometry" />
        </mxCell>
        <mxCell id="EM-M0i8cVrrj_vwTdJZg-22" value="" style="shape=image;html=1;verticalAlign=top;verticalLabelPosition=bottom;labelBackgroundColor=#ffffff;imageAspect=0;aspect=fixed;image=https://cdn2.iconfinder.com/data/icons/integers/60/number-five-128.png;fillColor=#FF99FF;" vertex="1" parent="EM-M0i8cVrrj_vwTdJZg-1">
          <mxGeometry x="339.5" y="215" width="40" height="40" as="geometry" />
        </mxCell>
        <mxCell id="EM-M0i8cVrrj_vwTdJZg-23" value="" style="shape=image;html=1;verticalAlign=top;verticalLabelPosition=bottom;labelBackgroundColor=#ffffff;imageAspect=0;aspect=fixed;image=https://cdn2.iconfinder.com/data/icons/integers/60/number-eight-128.png;fillColor=#FF99FF;" vertex="1" parent="EM-M0i8cVrrj_vwTdJZg-1">
          <mxGeometry x="126.5" y="290" width="40" height="40" as="geometry" />
        </mxCell>
        <mxCell id="EM-M0i8cVrrj_vwTdJZg-24" value="" style="shape=image;html=1;verticalAlign=top;verticalLabelPosition=bottom;labelBackgroundColor=#ffffff;imageAspect=0;aspect=fixed;image=https://cdn2.iconfinder.com/data/icons/integers/60/number-nine-128.png;fillColor=#FF99FF;" vertex="1" parent="EM-M0i8cVrrj_vwTdJZg-1">
          <mxGeometry x="50" y="321" width="44" height="44" as="geometry" />
        </mxCell>
      </root>
    </mxGraphModel>
  </diagram>
</mxfile>
